<svg width="7" height="5" viewBox="0 0 7 5" fill="none" xmlns="http://www.w3.org/2000/svg">
<path fill-rule="evenodd" clip-rule="evenodd" d="M0.175916 1.01114C0.288433 0.908031 0.441017 0.850107 0.600116 0.850107C0.759214 0.850107 0.911799 0.908031 1.02432 1.01114L3.00012 2.82229L4.97592 1.01114C5.03126 0.958609 5.09747 0.916709 5.17067 0.887884C5.24388 0.859059 5.32261 0.843887 5.40228 0.843252C5.48194 0.842617 5.56095 0.856533 5.63469 0.884188C5.70843 0.911842 5.77542 0.952681 5.83175 1.00432C5.88809 1.05596 5.93264 1.11737 5.96281 1.18496C5.99298 1.25256 6.00816 1.32498 6.00747 1.39801C6.00677 1.47104 5.99022 1.54321 5.95878 1.61031C5.92733 1.67741 5.88162 1.7381 5.82432 1.78884L3.42432 3.98884C3.3118 4.09195 3.15921 4.14987 3.00012 4.14987C2.84102 4.14987 2.68843 4.09195 2.57592 3.98884L0.175916 1.78884C0.0634335 1.6857 0.000244141 1.54583 0.000244141 1.39999C0.000244141 1.25415 0.0634335 1.11428 0.175916 1.01114V1.01114Z" fill="currentColor"/>
</svg>
