<?xml version="1.0" encoding="UTF-8" standalone="no"?>
<!DOCTYPE svg PUBLIC "-//W3C//DTD SVG 1.1//EN" "http://www.w3.org/Graphics/SVG/1.1/DTD/svg11.dtd">
<svg width="100%" height="100%" viewBox="0 0 3000 3000" version="1.1" xmlns="http://www.w3.org/2000/svg" xmlns:xlink="http://www.w3.org/1999/xlink" xml:space="preserve" xmlns:serif="http://www.serif.com/" fill="currentColor" style="fill-rule:evenodd;clip-rule:evenodd;stroke-linejoin:round;stroke-miterlimit:2;">
    <g transform="matrix(2.06805,0,0,2.06805,-1630.2,-1581.35)">
        <g transform="matrix(0.986091,-0.399309,0.338549,0.836046,-590.748,800.437)">
            <path d="M1584.24,1856.18C1577.44,1856.01 1571.26,1860.82 1568.71,1868.26C1563.34,1884 1554.18,1910.79 1549.44,1924.65C1548.77,1926.63 1548.97,1928.89 1549.99,1930.66C1551.01,1932.44 1552.71,1933.49 1554.53,1933.48C1587.55,1933.34 1719.17,1932.9 1911.34,1934.4C2087.76,1935.77 2179.68,1769.4 2133.11,1710.16C2130.78,1707.22 2129.75,1703.15 2130.34,1699.18C2130.92,1695.21 2133.05,1691.79 2136.1,1689.95C2205.34,1647.62 2305.34,1451.88 2021.86,1451.88L1493.73,1451.88L1493.27,1528.16C1493.27,1528.16 1893.35,1526.46 2065.45,1526.34C2187.07,1526.25 2119.84,1653.95 2003.84,1653.95C1872.35,1653.95 1493.69,1654.91 1493.69,1654.91L1493.62,1728.63C1493.62,1728.63 2017.58,1736.75 2036.05,1736.81C2096.64,1737.03 2038.01,1861.1 1904.98,1861.1C1790.86,1861.1 1628.19,1857.27 1584.24,1856.18Z"/>
        </g>
        <g transform="matrix(-0.989915,0.389734,-0.330431,-0.839287,3613.39,2211.94)">
            <path d="M1495.95,1857.57C1489.26,1857.65 1483.27,1862.54 1480.86,1869.91C1476.24,1884.02 1468.75,1906.85 1464.71,1919.2C1464.07,1921.16 1464.28,1923.36 1465.27,1925.11C1466.26,1926.85 1467.92,1927.91 1469.7,1927.95C1511.28,1928.81 1712.39,1932.85 1911.34,1934.4C2087.76,1935.77 2179.68,1769.4 2133.11,1710.16C2130.78,1707.22 2129.75,1703.15 2130.34,1699.18C2130.92,1695.21 2133.05,1691.79 2136.1,1689.95C2205.34,1647.62 2305.34,1451.88 2021.86,1451.88L1340.21,1451.88L1366.6,1528.57C1366.6,1528.57 1893.35,1526.46 2065.45,1526.34C2187.07,1526.25 2120.21,1649.22 2004.21,1649.22C1872.71,1649.22 1627.94,1653.48 1627.94,1653.48L1628.39,1729.77C1628.39,1729.77 2017.58,1736.75 2036.05,1736.81C2096.64,1737.03 2037.11,1854.24 1904.08,1854.24C1786.65,1854.24 1549.87,1856.94 1495.95,1857.57Z"/>
        </g>
    </g>
</svg>
