<svg width="258" height="40" viewBox="0 0 258 40" fill="none" xmlns="http://www.w3.org/2000/svg">
<path fill-rule="evenodd" clip-rule="evenodd" d="M45.9476 35.3784C45.2932 35.5896 44.8748 36.1499 44.8968 36.7861C44.9249 37.6118 44.9631 38.7395 44.9884 39.4774C44.9943 39.6475 45.0937 39.8082 45.2537 39.9063C45.4136 40.0045 45.6136 40.0271 45.7868 39.9667C48.2731 39.0991 56.6166 36.1987 68.6512 32.1293C79.8401 28.346 81.9482 18.2872 77.894 16.0131C77.6163 15.8564 77.4197 15.6041 77.3519 15.3202C77.2839 15.0359 77.3518 14.7457 77.5385 14.5209C80.8366 10.5651 82.1107 -0.862547 64.1786 5.32701L30.0014 17.1238L31.8093 20.9809C31.8093 20.9809 57.659 11.9586 68.7933 8.10839C76.6616 5.38723 75.3874 13.3289 67.8806 15.92C59.3714 18.8571 34.8901 27.3636 34.8901 27.3636L36.6617 31.0829C36.6617 31.0829 70.7646 19.7887 71.9613 19.3792C75.8876 18.0369 75.0825 25.6034 66.4737 28.5749C59.361 31.0299 49.2481 34.312 45.9476 35.3784Z" fill="currentColor"/>
<path fill-rule="evenodd" clip-rule="evenodd" d="M39.8598 6.2035C40.5001 5.98176 40.9042 5.42341 40.8791 4.79399C40.8513 4.07793 40.8148 3.14516 40.7901 2.50681C40.784 2.3397 40.687 2.18132 40.5306 2.08284C40.3747 1.98415 40.1796 1.95796 40.0068 2.01237C36.8112 3.02511 23.9708 7.10374 11.3194 11.257C0.054171 14.9555 -2.17106 25.0307 1.87079 27.3481C2.14761 27.5078 2.34211 27.7627 2.40696 28.0482C2.47205 28.3341 2.40071 28.6247 2.21104 28.8486C-1.14082 32.7893 -2.54443 44.2453 15.5115 38.1913L59.9279 23.2986L56.3975 19.9781C56.3975 19.9781 22.1242 31.5938 10.9129 35.3599C2.99028 38.0216 4.44325 30.312 12.0018 27.7777C20.5704 24.9047 36.4191 19.3405 36.4191 19.3405L34.5884 15.4736C34.5884 15.4736 9.06383 23.6219 7.85891 24.0223C3.90565 25.3349 5.01702 18.0782 13.6853 15.1718C21.1109 12.682 35.8013 7.60718 39.8598 6.2035Z" fill="currentColor"/>
<path d="M98.5576 34.4554H103.177V3.21584H98.5576V34.4554ZM100.082 7.8099H109.968C110.83 7.8099 111.616 7.88647 112.324 8.0396C113.032 8.19274 113.633 8.43775 114.126 8.77465C114.618 9.11155 114.988 9.55564 115.234 10.1069C115.512 10.6276 115.65 11.2861 115.65 12.0824C115.65 12.8481 115.512 13.4912 115.234 14.0119C114.988 14.5325 114.618 14.9613 114.126 15.2982C113.633 15.6045 113.032 15.8189 112.324 15.9414C111.616 16.0639 110.83 16.1251 109.968 16.1251H100.082V19.341H110.43C111.878 19.341 113.202 19.2032 114.403 18.9275C115.604 18.6519 116.636 18.2078 117.498 17.5952C118.36 16.9521 119.038 16.1251 119.531 15.1145C120.023 14.1038 120.27 12.8634 120.27 11.3933C120.27 10.1376 120.023 9.00435 119.531 7.99366C119.038 6.98297 118.36 6.12541 117.498 5.42099C116.636 4.71657 115.604 4.18059 114.403 3.81307C113.202 3.41492 111.878 3.21584 110.43 3.21584H100.082V7.8099ZM100.082 34.4554H112.278C113.725 34.4554 115.05 34.2564 116.251 33.8582C117.452 33.4294 118.484 32.8475 119.346 32.1125C120.208 31.3774 120.886 30.5045 121.379 29.4939C121.871 28.4832 122.118 27.3653 122.118 26.1402C122.118 24.6395 121.871 23.3378 121.379 22.2352C120.886 21.1327 120.208 20.2445 119.346 19.5707C118.484 18.8663 117.452 18.3456 116.251 18.0087C115.05 17.6718 113.725 17.5034 112.278 17.5034H100.082V20.7192H111.816C113.571 20.7192 114.957 21.1174 115.974 21.9137C116.99 22.6793 117.498 23.8432 117.498 25.4051C117.498 26.9671 116.99 28.1003 115.974 28.8047C114.957 29.5092 113.571 29.8614 111.816 29.8614H100.082V34.4554Z" fill="currentColor"/>
<path d="M146.57 22.9703C146.57 19.2644 145.6 16.3548 143.66 14.2416C141.75 12.0977 139.117 11.0257 135.76 11.0257C132.403 11.0257 129.755 12.0977 127.814 14.2416C125.874 16.3548 124.904 19.2644 124.904 22.9703C124.904 26.7068 125.874 29.6317 127.814 31.7449C129.755 33.8582 132.403 34.9148 135.76 34.9148C139.148 34.9148 141.796 33.8582 143.706 31.7449C145.615 29.6317 146.57 26.7068 146.57 22.9703ZM142.089 22.9703C142.089 25.6348 141.55 27.6562 140.472 29.0344C139.425 30.4127 137.854 31.1018 135.76 31.1018C133.697 31.1018 132.126 30.4127 131.048 29.0344C129.97 27.6562 129.431 25.6348 129.431 22.9703C129.431 20.3057 129.955 18.2844 131.002 16.9061C132.08 15.4973 133.666 14.7929 135.76 14.7929C137.854 14.7929 139.425 15.482 140.472 16.8602C141.55 18.2384 142.089 20.2751 142.089 22.9703Z" fill="currentColor"/>
<path d="M149.401 34.4554H154.02V11.4851H149.401V34.4554ZM153.096 20.857L154.02 24.8539C154.02 22.5875 154.143 20.7805 154.39 19.4329C154.636 18.0853 154.975 17.0593 155.406 16.3548C155.837 15.6198 156.345 15.1451 156.931 14.9307C157.516 14.6857 158.147 14.5632 158.825 14.5632C159.872 14.5632 160.688 14.7622 161.273 15.1604C161.858 15.5279 162.274 16.0792 162.52 16.8143C162.798 17.5187 162.952 18.4069 162.982 19.4788C163.013 20.5201 163.029 21.7146 163.029 23.0622V34.4554H167.648V22.3731C167.648 20.6886 167.556 19.1572 167.371 17.779C167.186 16.3702 166.817 15.1757 166.262 14.1956C165.739 13.1849 165 12.404 164.045 11.8527C163.09 11.3014 161.843 11.0257 160.303 11.0257C158.886 11.0257 157.716 11.2401 156.792 11.6689C155.899 12.0977 155.175 12.7409 154.621 13.5984C154.097 14.4253 153.728 15.4513 153.512 16.6764C153.297 17.8709 153.158 19.2644 153.096 20.857ZM166.724 20.857L167.648 24.8539C167.648 22.5875 167.771 20.7805 168.018 19.4329C168.264 18.0853 168.603 17.0593 169.034 16.3548C169.465 15.6198 169.973 15.1451 170.559 14.9307C171.144 14.6857 171.775 14.5632 172.453 14.5632C173.5 14.5632 174.316 14.7622 174.901 15.1604C175.486 15.5279 175.902 16.0792 176.148 16.8143C176.426 17.5187 176.58 18.4069 176.61 19.4788C176.641 20.5201 176.657 21.7146 176.657 23.0622V34.4554H181.276V22.3731C181.276 20.6886 181.184 19.1572 180.999 17.779C180.814 16.3702 180.445 15.1757 179.89 14.1956C179.367 13.1849 178.628 12.404 177.673 11.8527C176.718 11.3014 175.471 11.0257 173.931 11.0257C172.514 11.0257 171.344 11.2401 170.42 11.6689C169.527 12.0977 168.803 12.7409 168.249 13.5984C167.725 14.4253 167.356 15.4513 167.14 16.6764C166.924 17.8709 166.786 19.2644 166.724 20.857Z" fill="currentColor"/>
<path d="M200.067 20.3057V28.7588C200.067 29.8001 200.113 30.673 200.206 31.3774C200.298 32.0818 200.498 32.6638 200.806 33.1232C201.114 33.5826 201.546 33.9195 202.1 34.1339C202.654 34.3482 203.409 34.4554 204.363 34.4554H206.165V30.3208H204.687V20.9948C204.687 19.5247 204.502 18.1772 204.133 16.9521C203.763 15.727 203.193 14.6704 202.423 13.7822C201.684 12.894 200.729 12.2202 199.559 11.7608C198.389 11.2708 196.987 11.0257 195.355 11.0257C193.785 11.0257 192.383 11.2861 191.151 11.8067C189.95 12.2968 188.934 12.9552 188.102 13.7822C187.271 14.6091 186.639 15.5279 186.208 16.5386C185.777 17.5493 185.562 18.56 185.562 19.5707H190.181C190.181 18.9275 190.32 18.3762 190.597 17.9168C190.874 17.4268 191.244 17.0133 191.706 16.6764C192.168 16.3089 192.691 16.0486 193.276 15.8954C193.892 15.7117 194.539 15.6198 195.217 15.6198C196.818 15.6198 198.019 16.0179 198.82 16.8143C199.651 17.6106 200.067 18.7744 200.067 20.3057ZM202.747 20.122C201.915 20.1832 201.068 20.2445 200.206 20.3057C199.467 20.3364 198.666 20.3823 197.804 20.4436C196.972 20.5048 196.171 20.5661 195.401 20.6273C193.923 20.6886 192.522 20.8723 191.198 21.1786C189.873 21.4543 188.703 21.883 187.687 22.4649C186.701 23.0469 185.916 23.7972 185.331 24.716C184.776 25.6348 184.499 26.768 184.499 28.1156C184.499 30.1983 185.069 31.8521 186.208 33.0772C187.379 34.3023 189.103 34.9148 191.382 34.9148C193.261 34.9148 194.847 34.6239 196.141 34.042C197.465 33.4601 198.543 32.6791 199.374 31.699C200.206 30.7189 200.806 29.5857 201.176 28.2994C201.576 27.0131 201.776 25.6655 201.776 24.2566C201.776 24.2566 201.684 24.2566 201.499 24.2566C201.315 24.2566 201.114 24.2566 200.899 24.2566C200.683 24.2566 200.406 24.2719 200.067 24.3026C200.067 25.0989 199.959 25.8952 199.744 26.6915C199.528 27.4878 199.159 28.2075 198.635 28.8507C198.142 29.4939 197.449 30.0145 196.556 30.4127C195.694 30.8108 194.601 31.0099 193.276 31.0099C191.952 31.0099 190.92 30.7802 190.181 30.3208C189.473 29.8614 189.119 29.0804 189.119 27.9778C189.119 27.3346 189.273 26.7987 189.581 26.3699C189.889 25.9105 190.32 25.543 190.874 25.2673C191.459 24.961 192.137 24.7467 192.907 24.6242C193.708 24.471 194.57 24.3638 195.494 24.3026C196.171 24.2413 196.926 24.1801 197.757 24.1188C198.589 24.0576 199.374 24.0116 200.113 23.981C200.853 23.9197 201.469 23.8738 201.961 23.8432C202.485 23.8125 202.747 23.7972 202.747 23.7972V20.122Z" fill="currentColor"/>
<path d="M231.703 34.4554H209.944V30.0911H231.703V34.4554ZM216.319 32.8016V11.4851C217.089 11.4851 217.767 11.4851 218.352 11.4851C218.845 11.4851 219.291 11.4851 219.692 11.4851C220.123 11.4851 220.338 11.4851 220.338 11.4851L220.939 18.1925V32.8016H216.319ZM218.814 15.8495H209.944V11.4851H218.814V15.8495ZM227.453 11.4851H231.703V16.0792H226.852C225.528 16.0792 224.481 16.1711 223.711 16.3548C222.941 16.5386 222.34 16.9214 221.909 17.5034C221.509 18.0546 221.247 18.851 221.124 19.8923C221.001 20.903 220.939 22.2352 220.939 23.8891L220.385 20.9489C220.385 19.3869 220.508 18.024 220.754 16.8602C221.001 15.6657 221.401 14.6704 221.955 13.8741C222.54 13.0778 223.28 12.4805 224.173 12.0824C225.066 11.6842 226.159 11.4851 227.453 11.4851Z" fill="currentColor"/>
<path d="M234.44 34.4554H239.059V0H234.44V34.4554ZM257.076 11.4851H250.378L235.918 24.4863V30.8721L257.076 11.4851ZM258 34.4554L245.712 19.3869L242.293 22.4649L252.087 34.4554H258Z" fill="currentColor"/>
</svg>
