<svg width="144" height="31" viewBox="0 0 144 31" fill="none" xmlns="http://www.w3.org/2000/svg">
<path d="M0 30H4V2.8H0V30ZM1.32 6.8H9.88C10.6267 6.8 11.3067 6.86667 11.92 7C12.5333 7.13333 13.0533 7.34667 13.48 7.64C13.9067 7.93333 14.2267 8.32 14.44 8.8C14.68 9.25333 14.8 9.82667 14.8 10.52C14.8 11.1867 14.68 11.7467 14.44 12.2C14.2267 12.6533 13.9067 13.0267 13.48 13.32C13.0533 13.5867 12.5333 13.7733 11.92 13.88C11.3067 13.9867 10.6267 14.04 9.88 14.04H1.32V16.84H10.28C11.5333 16.84 12.68 16.72 13.72 16.48C14.76 16.24 15.6533 15.8533 16.4 15.32C17.1467 14.76 17.7333 14.04 18.16 13.16C18.5867 12.28 18.8 11.2 18.8 9.92C18.8 8.82667 18.5867 7.84 18.16 6.96C17.7333 6.08 17.1467 5.33333 16.4 4.72C15.6533 4.10667 14.76 3.64 13.72 3.32C12.68 2.97333 11.5333 2.8 10.28 2.8H1.32V6.8ZM1.32 30H11.88C13.1333 30 14.28 29.8267 15.32 29.48C16.36 29.1067 17.2533 28.6 18 27.96C18.7467 27.32 19.3333 26.56 19.76 25.68C20.1867 24.8 20.4 23.8267 20.4 22.76C20.4 21.4533 20.1867 20.32 19.76 19.36C19.3333 18.4 18.7467 17.6267 18 17.04C17.2533 16.4267 16.36 15.9733 15.32 15.68C14.28 15.3867 13.1333 15.24 11.88 15.24H1.32V18.04H11.48C13 18.04 14.2 18.3867 15.08 19.08C15.96 19.7467 16.4 20.76 16.4 22.12C16.4 23.48 15.96 24.4667 15.08 25.08C14.2 25.6933 13 26 11.48 26H1.32V30Z" fill="currentColor"/>
<path d="M42.5725 20C42.5725 16.7733 41.7325 14.24 40.0525 12.4C38.3992 10.5333 36.1192 9.6 33.2125 9.6C30.3058 9.6 28.0125 10.5333 26.3325 12.4C24.6525 14.24 23.8125 16.7733 23.8125 20C23.8125 23.2533 24.6525 25.8 26.3325 27.64C28.0125 29.48 30.3058 30.4 33.2125 30.4C36.1458 30.4 38.4392 29.48 40.0925 27.64C41.7458 25.8 42.5725 23.2533 42.5725 20ZM38.6925 20C38.6925 22.32 38.2258 24.08 37.2925 25.28C36.3858 26.48 35.0258 27.08 33.2125 27.08C31.4258 27.08 30.0658 26.48 29.1325 25.28C28.1992 24.08 27.7325 22.32 27.7325 20C27.7325 17.68 28.1858 15.92 29.0925 14.72C30.0258 13.4933 31.3992 12.88 33.2125 12.88C35.0258 12.88 36.3858 13.48 37.2925 14.68C38.2258 15.88 38.6925 17.6533 38.6925 20Z" fill="currentColor"/>
<path d="M46.0234 30H50.0234V10H46.0234V30ZM49.2234 18.16L50.0234 21.64C50.0234 19.6667 50.1301 18.0933 50.3434 16.92C50.5568 15.7467 50.8501 14.8533 51.2234 14.24C51.5968 13.6 52.0368 13.1867 52.5434 13C53.0501 12.7867 53.5968 12.68 54.1834 12.68C55.0901 12.68 55.7968 12.8533 56.3034 13.2C56.8101 13.52 57.1701 14 57.3834 14.64C57.6234 15.2533 57.7568 16.0267 57.7834 16.96C57.8101 17.8667 57.8234 18.9067 57.8234 20.08V30H61.8234V19.48C61.8234 18.0133 61.7434 16.68 61.5834 15.48C61.4234 14.2533 61.1034 13.2133 60.6234 12.36C60.1701 11.48 59.5301 10.8 58.7034 10.32C57.8768 9.84 56.7968 9.6 55.4634 9.6C54.2368 9.6 53.2234 9.78667 52.4234 10.16C51.6501 10.5333 51.0234 11.0933 50.5434 11.84C50.0901 12.56 49.7701 13.4533 49.5834 14.52C49.3968 15.56 49.2768 16.7733 49.2234 18.16ZM61.0234 18.16L61.8234 21.64C61.8234 19.6667 61.9301 18.0933 62.1434 16.92C62.3568 15.7467 62.6501 14.8533 63.0234 14.24C63.3968 13.6 63.8368 13.1867 64.3434 13C64.8501 12.7867 65.3968 12.68 65.9834 12.68C66.8901 12.68 67.5968 12.8533 68.1034 13.2C68.6101 13.52 68.9701 14 69.1834 14.64C69.4234 15.2533 69.5568 16.0267 69.5834 16.96C69.6101 17.8667 69.6234 18.9067 69.6234 20.08V30H73.6234V19.48C73.6234 18.0133 73.5434 16.68 73.3834 15.48C73.2234 14.2533 72.9034 13.2133 72.4234 12.36C71.9701 11.48 71.3301 10.8 70.5034 10.32C69.6768 9.84 68.5968 9.6 67.2634 9.6C66.0368 9.6 65.0234 9.78667 64.2234 10.16C63.4501 10.5333 62.8234 11.0933 62.3434 11.84C61.8901 12.56 61.5701 13.4533 61.3834 14.52C61.1968 15.56 61.0768 16.7733 61.0234 18.16Z" fill="currentColor"/>
<path d="M90.8941 17.68V25.04C90.8941 25.9467 90.9341 26.7067 91.0141 27.32C91.0941 27.9333 91.2674 28.44 91.5341 28.84C91.8007 29.24 92.1741 29.5333 92.6541 29.72C93.1341 29.9067 93.7874 30 94.6141 30H96.1741V26.4H94.8941V18.28C94.8941 17 94.7341 15.8267 94.4141 14.76C94.0941 13.6933 93.6007 12.7733 92.9341 12C92.2941 11.2267 91.4674 10.64 90.4541 10.24C89.4407 9.81333 88.2274 9.6 86.8141 9.6C85.4541 9.6 84.2407 9.82667 83.1741 10.28C82.1341 10.7067 81.2541 11.28 80.5341 12C79.8141 12.72 79.2674 13.52 78.8941 14.4C78.5207 15.28 78.3341 16.16 78.3341 17.04H82.3341C82.3341 16.48 82.4541 16 82.6941 15.6C82.9341 15.1733 83.2541 14.8133 83.6541 14.52C84.0541 14.2 84.5074 13.9733 85.0141 13.84C85.5474 13.68 86.1074 13.6 86.6941 13.6C88.0807 13.6 89.1207 13.9467 89.8141 14.64C90.5341 15.3333 90.8941 16.3467 90.8941 17.68ZM93.2141 17.52C92.4941 17.5733 91.7607 17.6267 91.0141 17.68C90.3741 17.7067 89.6807 17.7467 88.9341 17.8C88.2141 17.8533 87.5207 17.9067 86.8541 17.96C85.5741 18.0133 84.3607 18.1733 83.2141 18.44C82.0674 18.68 81.0541 19.0533 80.1741 19.56C79.3207 20.0667 78.6407 20.72 78.1341 21.52C77.6541 22.32 77.4141 23.3067 77.4141 24.48C77.4141 26.2933 77.9074 27.7333 78.8941 28.8C79.9074 29.8667 81.4007 30.4 83.3741 30.4C85.0007 30.4 86.3741 30.1467 87.4941 29.64C88.6407 29.1333 89.5741 28.4533 90.2941 27.6C91.0141 26.7467 91.5341 25.76 91.8541 24.64C92.2007 23.52 92.3741 22.3467 92.3741 21.12C92.3741 21.12 92.2941 21.12 92.1341 21.12C91.9741 21.12 91.8007 21.12 91.6141 21.12C91.4274 21.12 91.1874 21.1333 90.8941 21.16C90.8941 21.8533 90.8007 22.5467 90.6141 23.24C90.4274 23.9333 90.1074 24.56 89.6541 25.12C89.2274 25.68 88.6274 26.1333 87.8541 26.48C87.1074 26.8267 86.1607 27 85.0141 27C83.8674 27 82.9741 26.8 82.3341 26.4C81.7207 26 81.4141 25.32 81.4141 24.36C81.4141 23.8 81.5474 23.3333 81.8141 22.96C82.0807 22.56 82.4541 22.24 82.9341 22C83.4407 21.7333 84.0274 21.5467 84.6941 21.44C85.3874 21.3067 86.1341 21.2133 86.9341 21.16C87.5207 21.1067 88.1741 21.0533 88.8941 21C89.6141 20.9467 90.2941 20.9067 90.9341 20.88C91.5741 20.8267 92.1074 20.7867 92.5341 20.76C92.9874 20.7333 93.2141 20.72 93.2141 20.72V17.52Z" fill="currentColor"/>
<path d="M119.286 30H100.446V26.2H119.286V30ZM105.966 28.56V10C106.633 10 107.22 10 107.726 10C108.153 10 108.54 10 108.886 10C109.26 10 109.446 10 109.446 10L109.966 15.84V28.56H105.966ZM108.126 13.8H100.446V10H108.126V13.8ZM115.606 10H119.286V14H115.086C113.94 14 113.033 14.08 112.366 14.24C111.7 14.4 111.18 14.7333 110.806 15.24C110.46 15.72 110.233 16.4133 110.126 17.32C110.02 18.2 109.966 19.36 109.966 20.8L109.486 18.24C109.486 16.88 109.593 15.6933 109.806 14.68C110.02 13.64 110.366 12.7733 110.846 12.08C111.353 11.3867 111.993 10.8667 112.766 10.52C113.54 10.1733 114.486 10 115.606 10Z" fill="currentColor"/>
<path d="M122.656 30H126.656V0H122.656V30ZM142.256 10H136.456L123.936 21.32V26.88L142.256 10ZM143.056 30L132.416 16.88L129.456 19.56L137.936 30H143.056Z" fill="currentColor"/>
</svg>
